<?xml version="1.0" encoding="utf-8"?>
<!-- Generator: Adobe Illustrator 23.0.0, SVG Export Plug-In . SVG Version: 6.00 Build 0)  -->
<svg version="1.1" id="Layer_1" xmlns="http://www.w3.org/2000/svg" xmlns:xlink="http://www.w3.org/1999/xlink" x="0px" y="0px"
	 viewBox="0 0 779.9 241.2" style="enable-background:new 0 0 779.9 241.2;" xml:space="preserve">
<style type="text/css">
	.st0{fill-rule:evenodd;clip-rule:evenodd;fill:#C6FF5F;stroke:#D2C03E;stroke-miterlimit:10;}
	.st1{fill:#262626;}
	.st2{font-family:'TimesNewRomanPSMT';}
	.st3{font-size:15.96px;}
	.st4{fill:#5B9BD5;}
	.st5{fill:#404040;}
	.st6{font-size:24px;}
	.st7{fill-rule:evenodd;clip-rule:evenodd;fill:#A8CABA;}
	.st8{fill:#FFFFFF;}
	.st9{font-size:14.04px;}
	.st10{fill-rule:evenodd;clip-rule:evenodd;fill:#69D2E7;stroke:#767171;stroke-miterlimit:10;}
	.st11{font-size:12px;}
	.st12{fill-rule:evenodd;clip-rule:evenodd;fill:#C5E0B4;stroke:#FFE699;stroke-miterlimit:10;}
	.st13{fill:none;}
	.st14{fill-rule:evenodd;clip-rule:evenodd;fill:#9A6E91;stroke:#D2C03E;stroke-miterlimit:10;}
	.st15{fill:none;stroke:#5B9BD5;stroke-width:1.56;stroke-miterlimit:10;stroke-dasharray:6.24,4.68;}
	.st16{font-family:'TimesNewRomanPS-ItalicMT';}
	.st17{font-size:21.1653px;}
	.st18{font-size:14.1102px;}
	.st19{fill-rule:evenodd;clip-rule:evenodd;fill:#92DFEE;stroke:#767171;stroke-miterlimit:10;}
	.st20{fill-rule:evenodd;clip-rule:evenodd;fill:#E6AC27;}
	.st21{font-size:9.9129px;}
	.st22{fill-rule:evenodd;clip-rule:evenodd;fill:#E0E4CC;}
	.st23{fill:none;stroke:#F38630;stroke-width:2.52;stroke-miterlimit:10;}
	.st24{fill-rule:evenodd;clip-rule:evenodd;fill:#5B9BD5;}
	.st25{font-size:11.2685px;}
	.st26{font-size:19.925px;}
	.st27{font-size:13.3871px;}
	.st28{fill:none;stroke:#595959;stroke-miterlimit:10;}
	.st29{fill:#595959;}
	.st30{font-size:19.7319px;}
	.st31{font-size:11.5037px;}
	.st32{font-size:21px;}
	.st33{font-size:12.243px;}
	.st34{fill:none;stroke:#5B9BD5;stroke-miterlimit:10;}
	.st35{opacity:0.5;fill:#FFFFFF;stroke:#707070;stroke-miterlimit:8;}
	.st36{opacity:0.5;fill:none;stroke:#707070;stroke-miterlimit:8;}
	.st37{opacity:0.5;}
	.st38{fill:none;stroke:#707070;stroke-miterlimit:8;stroke-dasharray:6.24,4.68;}
	.st39{fill:#414141;}
	.st40{fill:#575757;}
	.st41{fill:#797979;}
	.st42{fill:#131313;}
	.st43{fill:#4F4F4F;}
	.st44{fill:#C5C5C5;}
	.st45{fill:#6E6E6E;}
	.st46{fill:#878787;}
	.st47{fill:#777777;}
</style>
<rect x="18.3" y="44.6" class="st0" width="3" height="71.3"/>
<text transform="matrix(0 -1 1 0 14.0992 97.1094)" class="st1 st2 st3">I</text>
<text transform="matrix(0 -1 1 0 14.0992 91.7949)" class="st1 st2 st3">n</text>
<text transform="matrix(0 -1 1 0 14.0992 83.8145)" class="st1 st2 st3">p</text>
<text transform="matrix(0 -1 1 0 14.0992 75.7705)" class="st1 st2 st3">u</text>
<text transform="matrix(0 -1 1 0 14.0992 67.7588)" class="st1 st2 st3">t</text>
<text transform="matrix(0 -1 1 0 775.0422 105.749)" class="st1 st2 st3">O</text>
<text transform="matrix(0 -1 1 0 775.0422 94.2236)" class="st1 st2 st3">u</text>
<text transform="matrix(0 -1 1 0 775.0422 86.2109)" class="st1 st2 st3">t</text>
<text transform="matrix(0 -1 1 0 775.0422 81.7764)" class="st1 st2 st3">p</text>
<text transform="matrix(0 -1 1 0 775.0422 73.748)" class="st1 st2 st3">u</text>
<text transform="matrix(0 -1 1 0 775.0422 65.7363)" class="st1 st2 st3">t</text>
<text transform="matrix(0 -1 1 0 775.0422 61.3018)" class="st1 st2 st3">s</text>
<path class="st4" d="M741.5,77.7l6,3l-6,3V77.7z M727.7,80.1h14.8v1.2h-14.8V80.1z"/>
<text transform="matrix(1 0 0 1 402.772 82.8099)" class="st5 st2 st6">…</text>
<path class="st4" d="M60.5,78l6,3l-6,3C60.5,84,60.5,78,60.5,78z M28.8,80.8h32.7v0.9H28.8V80.8z"/>
<g>
	<rect x="104.9" y="39.9" class="st7" width="79" height="94"/>
	<text transform="matrix(1 0 0 1 116.8652 129.1849)" class="st8 st2 st9">1</text>
	<text transform="matrix(1 0 0 1 123.9272 129.1849)" class="st8 st2 st9">-</text>
	<text transform="matrix(1 0 0 1 128.645 129.1849)" class="st8 st2 st9">t</text>
	<text transform="matrix(1 0 0 1 132.5879 129.1849)" class="st8 st2 st9">h</text>
	<text transform="matrix(1 0 0 1 139.6357 129.1849)" class="st8 st2 st9"> </text>
	<text transform="matrix(1 0 0 1 142.8931 129.1849)" class="st8 st2 st9">s</text>
	<text transform="matrix(1 0 0 1 148.3848 129.1849)" class="st8 st2 st9">t</text>
	<text transform="matrix(1 0 0 1 152.3276 129.1849)" class="st8 st2 st9">a</text>
	<text transform="matrix(1 0 0 1 158.5591 129.1849)" class="st8 st2 st9">g</text>
	<text transform="matrix(1 0 0 1 165.6216 129.1849)" class="st8 st2 st9">e</text>
</g>
<g>
	<rect x="213.1" y="39.9" class="st7" width="79" height="93.5"/>
	<text transform="matrix(1 0 0 1 225.1087 129.1849)" class="st8 st2 st9">2</text>
	<text transform="matrix(1 0 0 1 232.1707 129.1849)" class="st8 st2 st9">-</text>
	<text transform="matrix(1 0 0 1 236.8885 129.1849)" class="st8 st2 st9">t</text>
	<text transform="matrix(1 0 0 1 240.8313 129.1849)" class="st8 st2 st9">h</text>
	<text transform="matrix(1 0 0 1 247.8792 129.1849)" class="st8 st2 st9"> </text>
	<text transform="matrix(1 0 0 1 251.1365 129.1849)" class="st8 st2 st9">s</text>
	<text transform="matrix(1 0 0 1 256.6282 129.1849)" class="st8 st2 st9">t</text>
	<text transform="matrix(1 0 0 1 260.5711 129.1849)" class="st8 st2 st9">a</text>
	<text transform="matrix(1 0 0 1 266.8025 129.1849)" class="st8 st2 st9">g</text>
	<text transform="matrix(1 0 0 1 273.8792 129.1849)" class="st8 st2 st9">e</text>
</g>
<g>
	<rect x="322" y="39.9" class="st7" width="79.1" height="93.5"/>
	<text transform="matrix(1 0 0 1 333.9907 129.1849)" class="st8 st2 st9">3</text>
	<text transform="matrix(1 0 0 1 341.0527 129.1849)" class="st8 st2 st9">-</text>
	<text transform="matrix(1 0 0 1 345.7705 129.1849)" class="st8 st2 st9">t</text>
	<text transform="matrix(1 0 0 1 349.7133 129.1849)" class="st8 st2 st9">h</text>
	<text transform="matrix(1 0 0 1 356.7612 129.1849)" class="st8 st2 st9"> </text>
	<text transform="matrix(1 0 0 1 360.0185 129.1849)" class="st8 st2 st9">s</text>
	<text transform="matrix(1 0 0 1 365.5102 129.1849)" class="st8 st2 st9">t</text>
	<text transform="matrix(1 0 0 1 369.4531 129.1849)" class="st8 st2 st9">a</text>
	<text transform="matrix(1 0 0 1 375.6845 129.1849)" class="st8 st2 st9">g</text>
	<text transform="matrix(1 0 0 1 382.7612 129.1849)" class="st8 st2 st9">e</text>
</g>
<g>
	<rect x="647.5" y="39.9" class="st7" width="79.1" height="93.5"/>
	<text transform="matrix(1 0 0 1 659.4272 129.1849)" class="st8 st2 st9">k</text>
	<text transform="matrix(1 0 0 1 666.4751 129.1849)" class="st8 st2 st9">-</text>
	<text transform="matrix(1 0 0 1 671.1792 129.1849)" class="st8 st2 st9">t</text>
	<text transform="matrix(1 0 0 1 675.1069 129.1849)" class="st8 st2 st9">h</text>
	<text transform="matrix(1 0 0 1 682.1548 129.1849)" class="st8 st2 st9"> </text>
	<text transform="matrix(1 0 0 1 685.6929 129.1849)" class="st8 st2 st9">s</text>
	<text transform="matrix(1 0 0 1 691.1851 129.1849)" class="st8 st2 st9">t</text>
	<text transform="matrix(1 0 0 1 695.1274 129.1849)" class="st8 st2 st9">a</text>
	<text transform="matrix(1 0 0 1 701.3589 129.1849)" class="st8 st2 st9">g</text>
	<text transform="matrix(1 0 0 1 708.4341 129.1849)" class="st8 st2 st9">e</text>
</g>
<g>
	<rect x="537.8" y="39.9" class="st7" width="79.1" height="93.5"/>
	<text transform="matrix(1 0 0 1 539.1634 129.1849)" class="st8 st2 st9">(</text>
	<text transform="matrix(1 0 0 1 543.8675 129.1849)" class="st8 st2 st9">k</text>
	<text transform="matrix(1 0 0 1 550.9153 129.1849)" class="st8 st2 st9">-</text>
	<text transform="matrix(1 0 0 1 555.6185 129.1849)" class="st8 st2 st9">1</text>
	<text transform="matrix(1 0 0 1 562.6663 129.1849)" class="st8 st2 st9">)</text>
	<text transform="matrix(1 0 0 1 567.3704 129.1849)" class="st8 st2 st9">-</text>
	<text transform="matrix(1 0 0 1 572.0745 129.1849)" class="st8 st2 st9">t</text>
	<text transform="matrix(1 0 0 1 576.0023 129.1849)" class="st8 st2 st9">h</text>
	<text transform="matrix(1 0 0 1 583.0501 129.1849)" class="st8 st2 st9"> </text>
	<text transform="matrix(1 0 0 1 586.5882 129.1849)" class="st8 st2 st9">s</text>
	<text transform="matrix(1 0 0 1 592.0804 129.1849)" class="st8 st2 st9">t</text>
	<text transform="matrix(1 0 0 1 596.0228 129.1849)" class="st8 st2 st9">a</text>
	<text transform="matrix(1 0 0 1 602.2542 129.1849)" class="st8 st2 st9">g</text>
	<text transform="matrix(1 0 0 1 609.2171 129.1849)" class="st8 st2 st9">e</text>
</g>
<g>
	<rect x="429.8" y="39.9" class="st7" width="79" height="93.5"/>
	<text transform="matrix(1 0 0 1 431.1566 129.1849)" class="st8 st2 st9">(</text>
	<text transform="matrix(1 0 0 1 435.8607 129.1849)" class="st8 st2 st9">k</text>
	<text transform="matrix(1 0 0 1 442.9086 129.1849)" class="st8 st2 st9">-</text>
	<text transform="matrix(1 0 0 1 447.6117 129.1849)" class="st8 st2 st9">2</text>
	<text transform="matrix(1 0 0 1 454.6595 129.1849)" class="st8 st2 st9">)</text>
	<text transform="matrix(1 0 0 1 459.3636 129.1849)" class="st8 st2 st9">-</text>
	<text transform="matrix(1 0 0 1 464.0677 129.1849)" class="st8 st2 st9">t</text>
	<text transform="matrix(1 0 0 1 467.9955 129.1849)" class="st8 st2 st9">h</text>
	<text transform="matrix(1 0 0 1 475.0433 129.1849)" class="st8 st2 st9"> </text>
	<text transform="matrix(1 0 0 1 478.5814 129.1849)" class="st8 st2 st9">s</text>
	<text transform="matrix(1 0 0 1 484.0736 129.1849)" class="st8 st2 st9">t</text>
	<text transform="matrix(1 0 0 1 488.016 129.1849)" class="st8 st2 st9">a</text>
	<text transform="matrix(1 0 0 1 494.2474 129.1849)" class="st8 st2 st9">g</text>
	<text transform="matrix(1 0 0 1 501.2103 129.1849)" class="st8 st2 st9">e</text>
</g>
<path class="st4" d="M202.1,78l6,3l-6,3V78z M188.3,80.4h14.8v1.2h-14.8V80.4z"/>
<path class="st4" d="M309.5,78l6,3l-6,3V78z M295.7,80.4h14.8v1.2h-14.8V80.4z"/>
<path class="st4" d="M525.7,77.7l6,3l-6,3V77.7z M512,80.1h14.7v1.2H512L512,80.1L512,80.1z"/>
<path class="st4" d="M635.4,77.7l6,3l-6,3V77.7z M621.6,80.1h14.8v1.2h-14.8V80.1z"/>
<path class="st10" d="M116,116.5c-3.2,0-5.9-2.6-5.9-5.9V51.5c0-3.2,2.6-5.9,5.9-5.9h23.4c3.2,0,5.9,2.6,5.9,5.9v59.1
	c0,3.2-2.6,5.9-5.9,5.9H116z"/>
<text transform="matrix(0 -1 1 0 124.9423 93.6807)" class="st8 st2 st11">C</text>
<text transform="matrix(0 -1 1 0 124.9423 85.6523)" class="st8 st2 st11">N</text>
<text transform="matrix(0 -1 1 0 124.9423 76.9863)" class="st8 st2 st11">N</text>
<text transform="matrix(0 -1 1 0 124.9423 68.3682)" class="st8 st2 st11"> </text>
<text transform="matrix(0 -1 1 0 139.3423 102.6797)" class="st8 st2 st11">D</text>
<text transform="matrix(0 -1 1 0 139.3423 94.0137)" class="st8 st2 st11">e</text>
<text transform="matrix(0 -1 1 0 139.3423 88.7471)" class="st8 st2 st11">n</text>
<text transform="matrix(0 -1 1 0 139.3423 82.7471)" class="st8 st2 st11">o</text>
<text transform="matrix(0 -1 1 0 139.3423 76.7471)" class="st8 st2 st11">i</text>
<text transform="matrix(0 -1 1 0 139.3423 73.4131)" class="st8 st2 st11">s</text>
<text transform="matrix(0 -1 1 0 139.3423 68.7432)" class="st8 st2 st11">e</text>
<text transform="matrix(0 -1 1 0 139.3423 63.417)" class="st8 st2 st11">r</text>
<path class="st4" d="M154.9,84l5.9-3.1l-6.1-2.9L154.9,84z M148.7,81.7l7.1-0.1l0-1.2l-7.1,0.1L148.7,81.7z"/>
<rect x="166.5" y="44.6" class="st12" width="10.4" height="71.3"/>
<path class="st10" d="M225.2,116.5c-3.2,0-5.8-2.6-5.8-5.8V51.5c0-3.2,2.6-5.8,5.8-5.8h23.4c3.2,0,5.8,2.6,5.8,5.8v59.1
	c0,3.2-2.6,5.8-5.8,5.8H225.2z"/>
<text transform="matrix(0 -1 1 0 234.0423 93.6797)" class="st8 st2 st11">C</text>
<text transform="matrix(0 -1 1 0 234.0423 85.6523)" class="st8 st2 st11">N</text>
<text transform="matrix(0 -1 1 0 234.0423 76.9863)" class="st8 st2 st11">N</text>
<text transform="matrix(0 -1 1 0 234.0423 68.3682)" class="st8 st2 st11"> </text>
<text transform="matrix(0 -1 1 0 248.4423 102.6807)" class="st8 st2 st11">D</text>
<text transform="matrix(0 -1 1 0 248.4423 94.0146)" class="st8 st2 st11">e</text>
<text transform="matrix(0 -1 1 0 248.4423 88.748)" class="st8 st2 st11">n</text>
<text transform="matrix(0 -1 1 0 248.4423 82.748)" class="st8 st2 st11">o</text>
<text transform="matrix(0 -1 1 0 248.4423 76.748)" class="st8 st2 st11">i</text>
<text transform="matrix(0 -1 1 0 248.4423 73.4141)" class="st8 st2 st11">s</text>
<text transform="matrix(0 -1 1 0 248.4423 68.7441)" class="st8 st2 st11">e</text>
<text transform="matrix(0 -1 1 0 248.4423 63.418)" class="st8 st2 st11">r</text>
<rect x="253.7" y="73.2" class="st13" width="26" height="20"/>
<path class="st4" d="M264,84.6l6-3.1l-6-2.9L264,84.6z M257.8,82.3l7.1-0.1l0-1.2l-7.1,0.1L257.8,82.3z"/>
<rect x="275.6" y="44.6" class="st12" width="10.4" height="71.3"/>
<path class="st10" d="M331.3,116.5c-3.2,0-5.8-2.6-5.8-5.8V51.5c0-3.2,2.6-5.8,5.8-5.8h23.4c3.2,0,5.8,2.6,5.8,5.8v59.1
	c0,3.2-2.6,5.8-5.8,5.8H331.3z"/>
<text transform="matrix(0 -1 1 0 340.1423 93.6797)" class="st8 st2 st11">C</text>
<text transform="matrix(0 -1 1 0 340.1423 85.6514)" class="st8 st2 st11">N</text>
<text transform="matrix(0 -1 1 0 340.1423 76.9854)" class="st8 st2 st11">N</text>
<text transform="matrix(0 -1 1 0 340.1423 68.3672)" class="st8 st2 st11"> </text>
<text transform="matrix(0 -1 1 0 354.5423 102.6797)" class="st8 st2 st11">D</text>
<text transform="matrix(0 -1 1 0 354.5423 94.0137)" class="st8 st2 st11">e</text>
<text transform="matrix(0 -1 1 0 354.5423 88.748)" class="st8 st2 st11">n</text>
<text transform="matrix(0 -1 1 0 354.5423 82.748)" class="st8 st2 st11">o</text>
<text transform="matrix(0 -1 1 0 354.5423 76.748)" class="st8 st2 st11">i</text>
<text transform="matrix(0 -1 1 0 354.5423 73.4141)" class="st8 st2 st11">s</text>
<text transform="matrix(0 -1 1 0 354.5423 68.7441)" class="st8 st2 st11">e</text>
<text transform="matrix(0 -1 1 0 354.5423 63.418)" class="st8 st2 st11">r</text>
<rect x="359.8" y="72.6" class="st13" width="26" height="20"/>
<path class="st4" d="M370.1,84l6-3.1l-6-2.9L370.1,84z M363.9,81.7l7.1-0.1l0-1.2l-7.1,0.1L363.9,81.7z"/>
<image style="overflow:visible;enable-background:new    ;" width="30" height="118" xlink:href="9949EB13.png"  transform="matrix(0.6482 0 0 0.669 376.9621 44.3589)">
</image>
<rect x="381.6" y="44.6" class="st12" width="10.4" height="71.3"/>
<path class="st10" d="M438.8,114.8c-3.2,0-5.9-2.6-5.9-5.9V50c0-3.2,2.6-5.9,5.9-5.9h23.4c3.2,0,5.9,2.6,5.9,5.9v59
	c0,3.2-2.6,5.9-5.9,5.9H438.8z"/>
<text transform="matrix(0 -1 1 0 447.7819 92.0293)" class="st8 st2 st11">C</text>
<text transform="matrix(0 -1 1 0 447.7819 84.001)" class="st8 st2 st11">N</text>
<text transform="matrix(0 -1 1 0 447.7819 75.335)" class="st8 st2 st11">N</text>
<text transform="matrix(0 -1 1 0 447.7819 66.7178)" class="st8 st2 st11"> </text>
<text transform="matrix(0 -1 1 0 462.1819 101.0303)" class="st8 st2 st11">D</text>
<text transform="matrix(0 -1 1 0 462.1819 92.3643)" class="st8 st2 st11">e</text>
<text transform="matrix(0 -1 1 0 462.1819 87.0977)" class="st8 st2 st11">n</text>
<text transform="matrix(0 -1 1 0 462.1819 81.0977)" class="st8 st2 st11">o</text>
<text transform="matrix(0 -1 1 0 462.1819 75.0977)" class="st8 st2 st11">i</text>
<text transform="matrix(0 -1 1 0 462.1819 71.7637)" class="st8 st2 st11">s</text>
<text transform="matrix(0 -1 1 0 462.1819 67.0938)" class="st8 st2 st11">e</text>
<text transform="matrix(0 -1 1 0 462.1819 61.7676)" class="st8 st2 st11">r</text>
<rect x="467.4" y="72.4" class="st13" width="26" height="20"/>
<path class="st4" d="M477.7,83.7l6-3.1l-6-2.9L477.7,83.7z M471.5,81.4l7.1-0.1l0-1.2l-7.1,0.1L471.5,81.4z"/>
<rect x="489.3" y="44.6" class="st12" width="10.4" height="71.2"/>
<path class="st10" d="M548.8,114.8c-3.2,0-5.9-2.6-5.9-5.9V50c0-3.2,2.6-5.9,5.9-5.9h23.4c3.2,0,5.9,2.6,5.9,5.9v59
	c0,3.2-2.6,5.9-5.9,5.9H548.8z"/>
<text transform="matrix(0 -1 1 0 557.8218 92.0293)" class="st8 st2 st11">C</text>
<text transform="matrix(0 -1 1 0 557.8218 84.001)" class="st8 st2 st11">N</text>
<text transform="matrix(0 -1 1 0 557.8218 75.335)" class="st8 st2 st11">N</text>
<text transform="matrix(0 -1 1 0 557.8218 66.7178)" class="st8 st2 st11"> </text>
<text transform="matrix(0 -1 1 0 572.222 101.0303)" class="st8 st2 st11">D</text>
<text transform="matrix(0 -1 1 0 572.222 92.3643)" class="st8 st2 st11">e</text>
<text transform="matrix(0 -1 1 0 572.222 87.0977)" class="st8 st2 st11">n</text>
<text transform="matrix(0 -1 1 0 572.222 81.0977)" class="st8 st2 st11">o</text>
<text transform="matrix(0 -1 1 0 572.222 75.0977)" class="st8 st2 st11">i</text>
<text transform="matrix(0 -1 1 0 572.222 71.7637)" class="st8 st2 st11">s</text>
<text transform="matrix(0 -1 1 0 572.222 67.0938)" class="st8 st2 st11">e</text>
<text transform="matrix(0 -1 1 0 572.222 61.7676)" class="st8 st2 st11">r</text>
<rect x="577.5" y="72.4" class="st13" width="26" height="20"/>
<path class="st4" d="M587.7,83.7l6-3.1l-6-2.9L587.7,83.7z M581.6,81.4l7.1-0.1l0-1.2l-7.1,0.1L581.6,81.4z"/>
<rect x="599.3" y="44.6" class="st12" width="10.4" height="71.2"/>
<path class="st10" d="M658.3,114.8c-3.2,0-5.8-2.6-5.8-5.8v-59c0-3.2,2.6-5.8,5.8-5.8h23.4c3.2,0,5.8,2.6,5.8,5.8v59
	c0,3.2-2.6,5.8-5.8,5.8C681.6,114.8,658.3,114.8,658.3,114.8z"/>
<text transform="matrix(0 -1 1 0 667.242 92.0293)" class="st8 st2 st11">C</text>
<text transform="matrix(0 -1 1 0 667.242 84.001)" class="st8 st2 st11">N</text>
<text transform="matrix(0 -1 1 0 667.242 75.335)" class="st8 st2 st11">N</text>
<text transform="matrix(0 -1 1 0 667.242 66.7178)" class="st8 st2 st11"> </text>
<text transform="matrix(0 -1 1 0 681.6419 101.0293)" class="st8 st2 st11">D</text>
<text transform="matrix(0 -1 1 0 681.6419 92.3633)" class="st8 st2 st11">e</text>
<text transform="matrix(0 -1 1 0 681.6419 87.0967)" class="st8 st2 st11">n</text>
<text transform="matrix(0 -1 1 0 681.6419 81.0967)" class="st8 st2 st11">o</text>
<text transform="matrix(0 -1 1 0 681.6419 75.0967)" class="st8 st2 st11">i</text>
<text transform="matrix(0 -1 1 0 681.6419 71.7627)" class="st8 st2 st11">s</text>
<text transform="matrix(0 -1 1 0 681.6419 67.0928)" class="st8 st2 st11">e</text>
<text transform="matrix(0 -1 1 0 681.6419 61.7666)" class="st8 st2 st11">r</text>
<rect x="686.8" y="72.4" class="st13" width="26" height="20"/>
<path class="st4" d="M697.1,83.7l6-3.1l-6-2.9L697.1,83.7z M690.9,81.4l7.1-0.1l0-1.2l-7.1,0.1L690.9,81.4z"/>
<rect x="708.6" y="44.6" class="st12" width="10.6" height="71.2"/>
<rect x="750.9" y="44.6" class="st14" width="10.4" height="71.2"/>
<line class="st15" x1="325.4" y1="110.6" x2="240.3" y2="155.6"/>
<line class="st15" x1="360.5" y1="110.6" x2="459.5" y2="156.2"/>
<rect x="472.9" y="77.4" class="st13" width="49.4" height="45.4"/>
<rect x="472.9" y="77.4" class="st13" width="49.4" height="45.4"/>
<g>
	<text transform="matrix(0.9994 0 0 1 589.8438 108.5386)" class="st16 st17">v</text>
	<rect x="576.8" y="81" class="st13" width="49.4" height="45.4"/>
	<text transform="matrix(0.9994 0 0 1 599.1016 113.3823)" class="st16 st18">n</text>
	<rect x="576.8" y="81" class="st13" width="49.4" height="45.4"/>
	<text transform="matrix(0.9994 0 0 1 605.2734 113.3823)" class="st2 st18">-</text>
	<rect x="576.8" y="81" class="st13" width="49.4" height="45.4"/>
	<text transform="matrix(0.9994 0 0 1 609.6797 113.3823)" class="st2 st18">1</text>
	<rect x="576.8" y="81" class="st13" width="49.4" height="45.4"/>
	<polygon class="st13" points="576.8,126.4 626.1,126.4 626.1,81 576.8,81 	"/>
	<polygon class="st13" points="576.8,126.4 626.1,126.4 626.1,81 576.8,81 	"/>
	<polygon class="st13" points="576.8,126.4 626.1,126.4 626.1,81 576.8,81 	"/>
</g>
<g>
	<text transform="matrix(0.9994 0 0 1 479.8545 108.5386)" class="st16 st17">v</text>
	<rect x="466.9" y="81" class="st13" width="49.4" height="45.4"/>
	<text transform="matrix(0.9994 0 0 1 489.1201 113.3823)" class="st16 st18">n</text>
	<rect x="466.9" y="81" class="st13" width="49.4" height="45.4"/>
	<text transform="matrix(0.7487 0 0 1 497.0635 113.3828)" class="st2 st18">-</text>
	<rect x="466.9" y="81" class="st13" width="49.4" height="45.4"/>
	<text transform="matrix(0.9994 0 0 1 499.6982 113.3823)" class="st2 st18">2</text>
	<rect x="466.9" y="81" class="st13" width="49.4" height="45.4"/>
	<polygon class="st13" points="466.9,126.4 516.3,126.4 516.3,81 466.9,81 	"/>
	<polygon class="st13" points="466.9,126.4 516.3,126.4 516.3,81 466.9,81 	"/>
	<polygon class="st13" points="466.9,126.4 516.3,126.4 516.3,81 466.9,81 	"/>
</g>
<g>
	<text transform="matrix(0.9994 0 0 1 706.1563 108.5386)" class="st16 st17">v</text>
	<rect x="693" y="81" class="st13" width="37.9" height="45.4"/>
	<text transform="matrix(0.9994 0 0 1 715.4219 113.3823)" class="st16 st18">n</text>
	<rect x="693" y="81" class="st13" width="37.9" height="45.4"/>
	<polygon class="st13" points="693,126.4 730.9,126.4 730.9,81 693,81 	"/>
</g>
<g>
	<text transform="matrix(0.9994 0 0 1 164.4995 108.3589)" class="st16 st17">v</text>
	<rect x="151.4" y="81" class="st13" width="38.3" height="45.4"/>
	<text transform="matrix(0.9994 0 0 1 173.7651 113.2183)" class="st16 st18">1</text>
	<rect x="151.4" y="81" class="st13" width="38.3" height="45.4"/>
	<polygon class="st13" points="151.4,126.4 189.7,126.4 189.7,81 151.4,81 	"/>
</g>
<g>
	<text transform="matrix(0.9994 0 0 1 272.6958 108.3447)" class="st16 st17">v</text>
	<rect x="259.8" y="81.2" class="st13" width="37.9" height="45"/>
	<text transform="matrix(0.9994 0 0 1 281.9458 113.1885)" class="st16 st18">2</text>
	<rect x="259.8" y="81.2" class="st13" width="37.9" height="45"/>
	<polygon class="st13" points="259.8,126.2 297.7,126.2 297.7,81.2 259.8,81.2 	"/>
</g>
<g>
	<text transform="matrix(0.9994 0 0 1 379.0498 108.4058)" class="st16 st17">v</text>
	<rect x="366" y="81" class="st13" width="38.3" height="45.4"/>
	<text transform="matrix(0.9994 0 0 1 388.3076 113.2495)" class="st16 st18">3</text>
	<rect x="366" y="81" class="st13" width="38.3" height="45.4"/>
	<polygon class="st13" points="366,126.4 404.3,126.4 404.3,81 366,81 	"/>
</g>
<text transform="matrix(0.9994 0 0 1 52.2129 130.9458)" class="st16 st17">, o</text>
<text transform="matrix(0.9994 0 0 1 72.0571 135.7896)" class="st16 st18">-</text>
<text transform="matrix(0.9994 0 0 1 76.9004 135.7896)" class="st16 st18">1</text>
<text transform="matrix(0.9994 0 0 1 83.9395 130.9458)" class="st16 st17">,v</text>
<text transform="matrix(0.9994 0 0 1 97.7832 135.7896)" class="st16 st18">0</text>
<g>
	<text transform="matrix(0.9994 0 0 1 730.4561 69.4126)" class="st16 st17">o</text>
	<rect x="717.4" y="42" class="st13" width="37.5" height="45.4"/>
	<text transform="matrix(0.9994 0 0 1 739.7139 74.2568)" class="st16 st18">n</text>
	<rect x="717.4" y="42" class="st13" width="37.5" height="45.4"/>
	<polygon class="st13" points="717.4,87.4 754.8,87.4 754.8,42 717.4,42 	"/>
</g>
<g>
	<text transform="matrix(0.9994 0 0 1 619.707 69.4063)" class="st16 st17">o</text>
	<rect x="606.7" y="42.2" class="st13" width="49.4" height="45"/>
	<text transform="matrix(0.9994 0 0 1 628.9727 74.2505)" class="st16 st18">n</text>
	<rect x="606.7" y="42.2" class="st13" width="49.4" height="45"/>
	<text transform="matrix(0.9994 0 0 1 635.1367 74.2505)" class="st16 st18">-</text>
	<rect x="606.7" y="42.2" class="st13" width="49.4" height="45"/>
	<text transform="matrix(0.9994 0 0 1 639.9883 74.2505)" class="st2 st18">1</text>
	<rect x="606.7" y="42.2" class="st13" width="49.4" height="45"/>
	<polygon class="st13" points="606.7,87.2 656.1,87.2 656.1,42.2 606.7,42.2 	"/>
	<polygon class="st13" points="606.7,87.2 656.1,87.2 656.1,42.2 606.7,42.2 	"/>
	<polygon class="st13" points="606.7,87.2 656.1,87.2 656.1,42.2 606.7,42.2 	"/>
</g>
<g>
	<text transform="matrix(0.9994 0 0 1 509.168 69.3755)" class="st16 st17">o</text>
	<rect x="496" y="42.2" class="st13" width="49.4" height="45"/>
	<text transform="matrix(0.9994 0 0 1 518.4336 74.2188)" class="st16 st18">n</text>
	<rect x="496" y="42.2" class="st13" width="49.4" height="45"/>
	<text transform="matrix(0.9994 0 0 1 524.6055 74.2188)" class="st16 st18">-</text>
	<rect x="496" y="42.2" class="st13" width="49.4" height="45"/>
	<text transform="matrix(0.9994 0 0 1 529.4492 74.2188)" class="st2 st18">2</text>
	<rect x="496" y="42.2" class="st13" width="49.4" height="45"/>
	<polygon class="st13" points="496,87.2 545.4,87.2 545.4,42.2 496,42.2 	"/>
	<polygon class="st13" points="496,87.2 545.4,87.2 545.4,42.2 496,42.2 	"/>
	<polygon class="st13" points="496,87.2 545.4,87.2 545.4,42.2 496,42.2 	"/>
</g>
<g>
	<text transform="matrix(0.9994 0 0 1 195.9443 69.3594)" class="st16 st17">o</text>
	<rect x="182.8" y="42.2" class="st13" width="38.3" height="45"/>
	<text transform="matrix(0.9994 0 0 1 205.21 74.2109)" class="st2 st18">1</text>
	<rect x="182.8" y="42.2" class="st13" width="38.3" height="45"/>
	<polygon class="st13" points="182.8,87.2 221.1,87.2 221.1,42.2 182.8,42.2 	"/>
</g>
<g>
	<text transform="matrix(0.9994 0 0 1 300.0234 69.3594)" class="st16 st17">o</text>
	<rect x="287.1" y="42.2" class="st13" width="38.3" height="45"/>
	<text transform="matrix(0.9994 0 0 1 309.2891 74.2109)" class="st2 st18">2</text>
	<rect x="287.1" y="42.2" class="st13" width="38.3" height="45"/>
	<polygon class="st13" points="287.1,87.2 325.5,87.2 325.5,42.2 287.1,42.2 	"/>
</g>
<path class="st19" d="M223.6,166.2c0-5.5,4.9-10,10.9-10h225.1c6,0,10.9,4.5,10.9,10v62.9c0,5.5-4.9,10-10.9,10H234.4
	c-6,0-10.9-4.5-10.9-10V166.2z"/>
<g>
	<rect x="248.8" y="162.3" class="st20" width="14.2" height="70.2"/>
	<text transform="matrix(0 -1 1 0 258.4644 222.7754)" class="st8 st2 st21">C</text>
	<text transform="matrix(0 -1 1 0 258.4644 216.1641)" class="st8 st2 st21">o</text>
	<text transform="matrix(0 -1 1 0 258.4644 211.1865)" class="st8 st2 st21">n</text>
	<text transform="matrix(0 -1 1 0 258.4644 206.2012)" class="st8 st2 st21">v</text>
	<text transform="matrix(0 -1 1 0 258.4644 201.2441)" class="st8 st2 st21"> </text>
	<text transform="matrix(0 -1 1 0 258.4644 198.7656)" class="st8 st2 st21">+</text>
	<text transform="matrix(0 -1 1 0 258.4644 193.1758)" class="st8 st2 st21"> </text>
	<text transform="matrix(0 -1 1 0 258.4644 190.6982)" class="st8 st2 st21">R</text>
	<text transform="matrix(0 -1 1 0 258.4644 184.0859)" class="st8 st2 st21">e</text>
	<text transform="matrix(0 -1 1 0 258.4644 179.6855)" class="st8 st2 st21">l</text>
	<text transform="matrix(0 -1 1 0 258.4644 176.9316)" class="st8 st2 st21">u</text>
</g>
<text transform="matrix(1 0 0 1 307.4647 167.3817)" class="st8 st2 st11">C</text>
<text transform="matrix(1 0 0 1 315.4686 167.3817)" class="st8 st2 st11">N</text>
<text transform="matrix(1 0 0 1 324.0746 167.3817)" class="st8 st2 st11">N</text>
<text transform="matrix(1 0 0 1 332.7406 167.3817)" class="st8 st2 st11"> </text>
<text transform="matrix(1 0 0 1 335.8129 167.3817)" class="st8 st2 st11">D</text>
<text transform="matrix(1 0 0 1 344.4789 167.3817)" class="st8 st2 st11">e</text>
<text transform="matrix(1 0 0 1 349.8051 167.3817)" class="st8 st2 st11">n</text>
<text transform="matrix(1 0 0 1 355.8051 167.3817)" class="st8 st2 st11">o</text>
<text transform="matrix(1 0 0 1 361.7806 167.3817)" class="st8 st2 st11">i</text>
<text transform="matrix(1 0 0 1 365.1146 167.3817)" class="st8 st2 st11">s</text>
<text transform="matrix(1 0 0 1 369.7845 167.3817)" class="st8 st2 st11">e</text>
<text transform="matrix(1 0 0 1 375.1107 167.3817)" class="st8 st2 st11">r</text>
<rect x="451.6" y="200" class="st13" width="16.3" height="41.2"/>
<g>
	<ellipse class="st22" cx="457.8" cy="197.3" rx="6.3" ry="6.5"/>
	<ellipse class="st23" cx="457.8" cy="197.3" rx="6.3" ry="6.5"/>
	<line class="st23" x1="451.5" y1="197.3" x2="464" y2="197.3"/>
	<line class="st23" x1="457.8" y1="190.8" x2="457.8" y2="203.7"/>
</g>
<g>
	<rect x="305.9" y="177.1" class="st24" width="73.8" height="39.4"/>
	<text transform="matrix(1 0 0 1 333.4132 193.0397)" class="st8 st2 st25">S</text>
	<text transform="matrix(1 0 0 1 339.6803 193.0397)" class="st8 st2 st25">o</text>
	<text transform="matrix(1 0 0 1 345.3482 193.0397)" class="st8 st2 st25">f</text>
	<text transform="matrix(1 0 0 1 349.1344 193.0397)" class="st8 st2 st25">t</text>
	<text transform="matrix(1 0 0 1 311.3185 206.5622)" class="st8 st2 st25">T</text>
	<text transform="matrix(1 0 0 1 318.2018 206.5622)" class="st8 st2 st25">h</text>
	<text transform="matrix(1 0 0 1 323.836 206.5622)" class="st8 st2 st25">r</text>
	<text transform="matrix(1 0 0 1 327.5885 206.5622)" class="st8 st2 st25">e</text>
	<text transform="matrix(1 0 0 1 332.5899 206.5622)" class="st8 st2 st25">s</text>
	<text transform="matrix(1 0 0 1 336.9752 206.5622)" class="st8 st2 st25">h</text>
	<text transform="matrix(1 0 0 1 342.6432 206.5622)" class="st8 st2 st25">o</text>
	<text transform="matrix(1 0 0 1 348.3111 206.5622)" class="st8 st2 st25">l</text>
	<text transform="matrix(1 0 0 1 351.442 206.5622)" class="st8 st2 st25">d</text>
	<text transform="matrix(1 0 0 1 357.1104 206.5622)" class="st8 st2 st25">i</text>
	<text transform="matrix(1 0 0 1 360.2413 206.5622)" class="st8 st2 st25">n</text>
	<text transform="matrix(1 0 0 1 365.9093 206.5622)" class="st8 st2 st25">g</text>
	<text transform="matrix(1 0 0 1 371.5435 206.5622)" class="st8 st2 st25"> </text>
</g>
<g>
	<rect x="270.2" y="162.3" class="st20" width="14.1" height="70.2"/>
	<text transform="matrix(0 -1 1 0 279.9 208.1406)" class="st8 st2 st21">C</text>
	<text transform="matrix(0 -1 1 0 279.9 201.5293)" class="st8 st2 st21">o</text>
	<text transform="matrix(0 -1 1 0 279.9 196.543)" class="st8 st2 st21">n</text>
	<text transform="matrix(0 -1 1 0 279.9 191.5664)" class="st8 st2 st21">v</text>
</g>
<g>
	<rect x="422.1" y="162.3" class="st20" width="14.1" height="70.2"/>
	<text transform="matrix(0 -1 1 0 431.7982 208.1406)" class="st8 st2 st21">C</text>
	<text transform="matrix(0 -1 1 0 431.7982 201.5293)" class="st8 st2 st21">o</text>
	<text transform="matrix(0 -1 1 0 431.7982 196.543)" class="st8 st2 st21">n</text>
	<text transform="matrix(0 -1 1 0 431.7982 191.5664)" class="st8 st2 st21">v</text>
</g>
<text transform="matrix(0.9994 0 0 1 473.2422 188.7178)" class="st16 st26">v</text>
<text transform="matrix(0.9994 0 0 1 481.9639 193.3848)" class="st16 st27">3</text>
<text transform="matrix(0.9994 0 0 1 203.5557 186.7881)" class="st16 st26">o</text>
<text transform="matrix(0.9994 0 0 1 212.2764 191.4546)" class="st2 st27">2</text>
<line class="st28" x1="440.2" y1="235.9" x2="440.2" y2="197.7"/>
<line class="st28" x1="235.5" y1="235.1" x2="235.5" y2="196.9"/>
<line class="st28" x1="235" y1="235" x2="440.6" y2="235.7"/>
<g>
	<line class="st28" x1="202.1" y1="197.4" x2="240.3" y2="197.4"/>
	<g>
		<polygon class="st29" points="238.7,199.7 247.3,197.4 238.7,195.1 		"/>
	</g>
</g>
<g>
	<line class="st28" x1="465.6" y1="197.4" x2="483.2" y2="197.4"/>
	<g>
		<polygon class="st29" points="481.6,199.7 490.3,197.4 481.6,195.1 		"/>
	</g>
</g>
<g>
	<line class="st28" x1="435.9" y1="197.4" x2="443.5" y2="197.4"/>
	<g>
		<polygon class="st29" points="441.9,199.7 450.6,197.4 441.9,195.1 		"/>
	</g>
</g>
<g>
	<line class="st28" x1="381.1" y1="197.4" x2="392.1" y2="197.4"/>
	<g>
		<polygon class="st29" points="390.5,199.7 399.1,197.4 390.5,195.1 		"/>
	</g>
</g>
<g>
	<line class="st28" x1="286.4" y1="197.4" x2="297.3" y2="197.4"/>
	<g>
		<polygon class="st29" points="295.7,199.7 304.4,197.4 295.7,195.1 		"/>
	</g>
</g>
<g>
	<rect x="400.4" y="162.3" class="st20" width="14.1" height="70.2"/>
	<text transform="matrix(0 -1 1 0 410.0643 222.7754)" class="st8 st2 st21">C</text>
	<text transform="matrix(0 -1 1 0 410.0643 216.1641)" class="st8 st2 st21">o</text>
	<text transform="matrix(0 -1 1 0 410.0643 211.1865)" class="st8 st2 st21">n</text>
	<text transform="matrix(0 -1 1 0 410.0643 206.2012)" class="st8 st2 st21">v</text>
	<text transform="matrix(0 -1 1 0 410.0643 201.2441)" class="st8 st2 st21"> </text>
	<text transform="matrix(0 -1 1 0 410.0643 198.7656)" class="st8 st2 st21">+</text>
	<text transform="matrix(0 -1 1 0 410.0643 193.1758)" class="st8 st2 st21"> </text>
	<text transform="matrix(0 -1 1 0 410.0643 190.6982)" class="st8 st2 st21">R</text>
	<text transform="matrix(0 -1 1 0 410.0643 184.0859)" class="st8 st2 st21">e</text>
	<text transform="matrix(0 -1 1 0 410.0643 179.6855)" class="st8 st2 st21">l</text>
	<text transform="matrix(0 -1 1 0 410.0643 176.9316)" class="st8 st2 st21">u</text>
</g>
<g>
	
		<image style="overflow:visible;enable-background:new    ;" width="184" height="192" xlink:href="9949EB11.png"  transform="matrix(0.37 0 0 0.3864 1.4799 155.547)">
	</image>
</g>
<path class="st13" d="M33.9,155.6"/>
<g>
	<path d="M40.1,157.1c-2.1-2.5-4.5-4.9-7.3-6.7c-2.7-1.9-5.8-3.2-8.8-4.7c-3-1.5-5.6-3.9-7.6-6.6c-1.1-1.3-2-2.7-2.9-4.1l-0.6-1.1
		c-0.2-0.5-0.3-0.9-0.4-1.3c-0.1-0.8-0.2-1.7-0.3-2.5l0-0.1l0-0.1l2.3-5.8c0.8-1.9,1.5-3.9,2.3-5.8l0.8,0.3
		c-0.9,1.9-1.6,3.8-2.5,5.7l-2.4,5.8l0-0.1c0.1,0.8,0.2,1.7,0.3,2.5c0.1,0.4,0.1,0.8,0.3,1.1l0.6,1.1c0.9,1.4,1.8,2.8,2.8,4.1
		c2.1,2.6,4.5,4.9,7.5,6.4c1.5,0.8,3,1.4,4.5,2.2s3,1.6,4.4,2.5c2.8,1.9,5.4,4.1,7.6,6.7L40.1,157.1z"/>
	<g>
		<polygon points="18,125.1 17,125.1 17.2,118.6 12.8,123.4 12.1,122.7 18.3,115.8 		"/>
	</g>
</g>
<text transform="matrix(0.9994 0 0 1 28.0752 197.8721)" class="st16 st30">I</text>
<text transform="matrix(0.9995 0 0 1 34.6426 204.4434)" class="st16 st31">h</text>
<rect x="13.8" y="171.7" class="st13" width="38.3" height="45.4"/>
<rect x="13.8" y="171.7" class="st13" width="38.3" height="45.4"/>
<polygon class="st13" points="13.8,217.1 52.1,217.1 52.1,171.7 13.8,171.7 "/>
<text transform="matrix(1 0 0 1 24.2153 70.3125)" class="st16 st32">A</text>
<text transform="matrix(1 0 0 1 37.043 63.3193)" class="st16 st33">T</text>
<text transform="matrix(1 0 0 1 43.852 70.3125)" class="st2 st32">(</text>
<text transform="matrix(1 0 0 1 50.8452 70.3125)" class="st16 st32">I</text>
<text transform="matrix(1 0 0 1 57.8384 77.3057)" class="st16 st33">h</text>
<text transform="matrix(1 0 0 1 63.9599 70.3125)" class="st2 st32">)</text>
<rect x="72" y="46.1" class="st14" width="10.4" height="71.2"/>
<path class="st4" d="M98.1,79l6,3l-6,3V79z M84.4,81.4h14.8v1.2H84.4V81.4z"/>
<g>
	<text transform="matrix(0.9994 0 0 1 34.4907 131.085)" class="st16 st17">o</text>
	<rect x="21.4" y="103.9" class="st13" width="38.3" height="45"/>
	<text transform="matrix(0.9994 0 0 1 43.7563 135.9365)" class="st2 st18">0</text>
	<rect x="21.4" y="103.9" class="st13" width="38.3" height="45"/>
	<polygon class="st13" points="21.4,148.9 59.7,148.9 59.7,103.9 21.4,103.9 	"/>
</g>
<path class="st34" d="M193.9,80.8V0.5c48,0.2,95.9,0.3,143.9,0.5"/>
<g>
	<line class="st34" x1="338.1" y1="32.5" x2="337.7" y2="0.8"/>
	<g>
		<polygon class="st4" points="343,31 338.2,39.7 333.1,31.1 		"/>
	</g>
</g>
<path class="st34" d="M280.5,45.3V12.4c27.4,0.1,54.9,0.1,82.3,0.2"/>
<g>
	<line class="st34" x1="362.4" y1="32.7" x2="362.8" y2="12.4"/>
	<g>
		<polygon class="st4" points="367.4,31.4 362.3,39.9 357.5,31.2 		"/>
	</g>
</g>
<g>
	<text transform="matrix(0.9994 0 0 1 338.6299 27.4668)" class="st16 st17">o</text>
	<rect x="325.5" y="0.3" class="st13" width="38.3" height="45"/>
	<text transform="matrix(0.9994 0 0 1 347.8955 32.3184)" class="st2 st18">1</text>
	<rect x="325.5" y="0.3" class="st13" width="38.3" height="45"/>
	<polygon class="st13" points="325.5,45.3 363.8,45.3 363.8,0.3 325.5,0.3 	"/>
</g>
<g>
	<text transform="matrix(0.9994 0 0 1 362.7607 27.4355)" class="st16 st17">v</text>
	<rect x="349.9" y="0.3" class="st13" width="37.9" height="45"/>
	<text transform="matrix(0.9994 0 0 1 372.0107 32.2793)" class="st16 st18">2</text>
	<rect x="349.9" y="0.3" class="st13" width="37.9" height="45"/>
	<polygon class="st13" points="349.9,45.3 387.8,45.3 387.8,0.3 349.9,0.3 	"/>
</g>
<g>
	<polygon class="st35" points="695.5,166 714.8,148.6 772.7,148.6 772.7,207 753.4,224.3 695.5,224.3 695.5,166 	"/>
	<polyline class="st36" points="695.5,166 753.4,166 772.7,148.6 	"/>
	<line class="st36" x1="753.4" y1="166" x2="753.4" y2="224.3"/>
	<g class="st37">
		<line class="st38" x1="715.1" y1="148.6" x2="715.1" y2="207"/>
		<polyline class="st38" points="772.7,206.8 714.8,206.8 695.5,224.1 		"/>
	</g>
	<ellipse class="st39" cx="722" cy="175.7" rx="1.4" ry="1.3"/>
	<ellipse class="st40" cx="728.7" cy="188" rx="1.4" ry="1.3"/>
	<ellipse class="st39" cx="704.4" cy="180.6" rx="1.4" ry="1.3"/>
	<ellipse class="st41" cx="747.2" cy="173.1" rx="1.4" ry="1.3"/>
	<ellipse class="st42" cx="722" cy="200.5" rx="1.4" ry="1.3"/>
	<ellipse class="st43" cx="705.5" cy="195.9" rx="1.4" ry="1.3"/>
	<ellipse class="st44" cx="714.9" cy="180.4" rx="1.4" ry="1.3"/>
	<ellipse class="st45" cx="745.3" cy="185.4" rx="1.4" ry="1.3"/>
	<ellipse class="st46" cx="739.5" cy="198.6" rx="1.4" ry="1.3"/>
	<ellipse class="st39" cx="734.4" cy="180.6" rx="1.4" ry="1.3"/>
	<ellipse class="st39" cx="728.7" cy="214.8" rx="1.4" ry="1.3"/>
	<ellipse class="st39" cx="716.3" cy="213.5" rx="1.4" ry="1.3"/>
	<ellipse class="st39" cx="747.5" cy="205.1" rx="1.4" ry="1.3"/>
	<ellipse class="st39" cx="752.7" cy="214.8" rx="1.4" ry="1.3"/>
	<ellipse class="st39" cx="751.3" cy="192.8" rx="1.4" ry="1.3"/>
	<ellipse class="st47" cx="765.9" cy="177" rx="1.4" ry="1.3"/>
	<ellipse class="st39" cx="731.5" cy="203.1" rx="1.4" ry="1.3"/>
	<ellipse class="st39" cx="762.3" cy="198.6" rx="1.4" ry="1.3"/>
</g>
<g>
	<g>
		<path d="M756.4,115.7c0.2,2.4,0.5,4.8,1.1,7.2c0.6,2.4,1.6,4.6,2.4,6.9c0.9,2.3,1.2,4.8,1.4,7.3c0.1,1.2,0.1,2.5,0.1,3.7l0,0.9
			c0,0.4-0.1,0.7-0.2,1c-0.2,0.6-0.4,1.2-0.6,1.8l0,0.1l0,0c-1.4,1.5-2.8,3.1-4.2,4.6l-0.5-0.5c1.5-1.5,2.9-3,4.3-4.5l-0.1,0.1
			c0.2-0.6,0.4-1.2,0.6-1.7c0.1-0.3,0.2-0.6,0.2-0.8l0-0.9c0-1.2,0-2.4-0.1-3.7c-0.2-2.4-0.5-4.8-1.4-7.1c-0.8-2.3-2-4.5-2.6-6.9
			c-0.7-2.4-1.2-4.8-1.4-7.3L756.4,115.7z"/>
		<g>
			<polygon points="757.8,142.4 758.7,142.8 756.2,148.9 762,145.9 762.5,146.8 754.2,151 			"/>
		</g>
	</g>
</g>
</svg>
